<svg xmlns="http://www.w3.org/2000/svg" xmlns:xlink="http://www.w3.org/1999/xlink" width="500" zoomAndPan="magnify" viewBox="0 0 375 374.999991" height="500" preserveAspectRatio="xMidYMid meet" version="1.0"><defs><g/><clipPath id="ecba0113f1"><path d="M 189.078125 95 L 314.328125 95 L 314.328125 244.953125 L 189.078125 244.953125 Z M 189.078125 95 " clip-rule="nonzero"/></clipPath><clipPath id="060a0d739d"><path d="M 189.078125 123 L 314.328125 123 L 314.328125 244.953125 L 189.078125 244.953125 Z M 189.078125 123 " clip-rule="nonzero"/></clipPath><clipPath id="8f3304cc6a"><path d="M 232.0625 137.421875 C 232.0625 131.332031 236.855469 126.984375 247.777344 126.984375 C 255.988281 126.984375 264.691406 128.617188 272.90625 131.859375 C 256.082031 123.988281 229.84375 116.753906 206.632812 132.027344 C 206.632812 132.027344 191.484375 145.554688 198.101562 160.773438 C 200.863281 166.019531 204.792969 170.179688 209.394531 173.53125 C 209.507812 173.609375 209.601562 173.683594 209.714844 173.757812 C 210.054688 174 210.410156 174.246094 210.75 174.46875 C 211.539062 174.996094 212.347656 175.5 213.191406 176.023438 C 237.589844 190.566406 276.136719 187.417969 276.136719 200.964844 C 276.136719 207.9375 268.28125 212.941406 255.40625 212.941406 C 235.539062 212.941406 219.394531 204.246094 208.925781 193.789062 L 189.078125 221.839844 C 203.703125 235.765625 224.207031 244.910156 253.660156 244.910156 C 292.714844 244.910156 314.328125 225.550781 314.328125 196.394531 C 314.328125 142.425781 232.0625 155.917969 232.0625 137.421875 Z M 232.0625 137.421875 " clip-rule="nonzero"/></clipPath><linearGradient x1="17.939999" gradientTransform="matrix(0.18795, 0, 0, 0.187387, 176.524, 94.998658)" y1="164.959997" x2="693.089983" gradientUnits="userSpaceOnUse" y2="840.110006" id="6732999452"><stop stop-opacity="1" stop-color="rgb(33.299255%, 14.498901%, 0%)" offset="0"/><stop stop-opacity="1" stop-color="rgb(33.299255%, 14.498901%, 0%)" offset="0.0625"/><stop stop-opacity="1" stop-color="rgb(33.299255%, 14.498901%, 0%)" offset="0.09375"/><stop stop-opacity="1" stop-color="rgb(33.299255%, 14.498901%, 0%)" offset="0.109375"/><stop stop-opacity="1" stop-color="rgb(33.299255%, 14.498901%, 0%)" offset="0.117187"/><stop stop-opacity="1" stop-color="rgb(34.736633%, 15.936279%, 0.521851%)" offset="0.121094"/><stop stop-opacity="1" stop-color="rgb(36.174011%, 17.373657%, 1.045227%)" offset="0.125"/><stop stop-opacity="1" stop-color="rgb(37.820435%, 19.010925%, 1.63269%)" offset="0.128906"/><stop stop-opacity="1" stop-color="rgb(39.466858%, 20.648193%, 2.22168%)" offset="0.132812"/><stop stop-opacity="1" stop-color="rgb(40.921021%, 22.061157%, 2.706909%)" offset="0.136719"/><stop stop-opacity="1" stop-color="rgb(42.376709%, 23.475647%, 3.192139%)" offset="0.140625"/><stop stop-opacity="1" stop-color="rgb(43.832397%, 24.888611%, 3.677368%)" offset="0.144531"/><stop stop-opacity="1" stop-color="rgb(45.288086%, 26.303101%, 4.162598%)" offset="0.148437"/><stop stop-opacity="1" stop-color="rgb(46.742249%, 27.71759%, 4.646301%)" offset="0.152344"/><stop stop-opacity="1" stop-color="rgb(48.197937%, 29.13208%, 5.131531%)" offset="0.15625"/><stop stop-opacity="1" stop-color="rgb(49.653625%, 30.545044%, 5.61676%)" offset="0.160156"/><stop stop-opacity="1" stop-color="rgb(51.109314%, 31.959534%, 6.10199%)" offset="0.164062"/><stop stop-opacity="1" stop-color="rgb(52.444458%, 33.268738%, 6.550598%)" offset="0.167969"/><stop stop-opacity="1" stop-color="rgb(53.779602%, 34.579468%, 6.999207%)" offset="0.171875"/><stop stop-opacity="1" stop-color="rgb(54.922485%, 35.722351%, 7.389832%)" offset="0.175781"/><stop stop-opacity="1" stop-color="rgb(56.066895%, 36.86676%, 7.780457%)" offset="0.179687"/><stop stop-opacity="1" stop-color="rgb(57.209778%, 38.009644%, 8.169556%)" offset="0.183594"/><stop stop-opacity="1" stop-color="rgb(58.352661%, 39.154053%, 8.560181%)" offset="0.1875"/><stop stop-opacity="1" stop-color="rgb(59.495544%, 40.296936%, 8.950806%)" offset="0.191406"/><stop stop-opacity="1" stop-color="rgb(60.639954%, 41.439819%, 9.341431%)" offset="0.195312"/><stop stop-opacity="1" stop-color="rgb(61.782837%, 42.582703%, 9.73053%)" offset="0.199219"/><stop stop-opacity="1" stop-color="rgb(62.927246%, 43.727112%, 10.121155%)" offset="0.203125"/><stop stop-opacity="1" stop-color="rgb(64.070129%, 44.869995%, 10.51178%)" offset="0.207031"/><stop stop-opacity="1" stop-color="rgb(65.214539%, 46.014404%, 10.902405%)" offset="0.210937"/><stop stop-opacity="1" stop-color="rgb(66.160583%, 46.931458%, 11.235046%)" offset="0.214844"/><stop stop-opacity="1" stop-color="rgb(67.108154%, 47.850037%, 11.569214%)" offset="0.21875"/><stop stop-opacity="1" stop-color="rgb(68.026733%, 48.735046%, 11.894226%)" offset="0.222656"/><stop stop-opacity="1" stop-color="rgb(68.946838%, 49.621582%, 12.220764%)" offset="0.226562"/><stop stop-opacity="1" stop-color="rgb(69.865417%, 50.506592%, 12.547302%)" offset="0.230469"/><stop stop-opacity="1" stop-color="rgb(70.783997%, 51.391602%, 12.87384%)" offset="0.234375"/><stop stop-opacity="1" stop-color="rgb(71.702576%, 52.276611%, 13.198853%)" offset="0.238281"/><stop stop-opacity="1" stop-color="rgb(72.622681%, 53.163147%, 13.525391%)" offset="0.242187"/><stop stop-opacity="1" stop-color="rgb(73.54126%, 54.048157%, 13.850403%)" offset="0.246094"/><stop stop-opacity="1" stop-color="rgb(74.461365%, 54.934692%, 14.176941%)" offset="0.25"/><stop stop-opacity="1" stop-color="rgb(75.379944%, 55.819702%, 14.501953%)" offset="0.253906"/><stop stop-opacity="1" stop-color="rgb(76.298523%, 56.706238%, 14.828491%)" offset="0.257812"/><stop stop-opacity="1" stop-color="rgb(76.959229%, 57.362366%, 15.039062%)" offset="0.261719"/><stop stop-opacity="1" stop-color="rgb(77.619934%, 58.02002%, 15.25116%)" offset="0.265625"/><stop stop-opacity="1" stop-color="rgb(78.248596%, 58.648682%, 15.447998%)" offset="0.269531"/><stop stop-opacity="1" stop-color="rgb(78.877258%, 59.277344%, 15.646362%)" offset="0.273437"/><stop stop-opacity="1" stop-color="rgb(79.50592%, 59.906006%, 15.843201%)" offset="0.277344"/><stop stop-opacity="1" stop-color="rgb(80.134583%, 60.534668%, 16.040039%)" offset="0.28125"/><stop stop-opacity="1" stop-color="rgb(80.763245%, 61.16333%, 16.236877%)" offset="0.285156"/><stop stop-opacity="1" stop-color="rgb(81.391907%, 61.791992%, 16.435242%)" offset="0.289062"/><stop stop-opacity="1" stop-color="rgb(82.020569%, 62.420654%, 16.63208%)" offset="0.292969"/><stop stop-opacity="1" stop-color="rgb(82.649231%, 63.049316%, 16.830444%)" offset="0.296875"/><stop stop-opacity="1" stop-color="rgb(83.277893%, 63.677979%, 17.027283%)" offset="0.300781"/><stop stop-opacity="1" stop-color="rgb(83.906555%, 64.306641%, 17.224121%)" offset="0.304687"/><stop stop-opacity="1" stop-color="rgb(84.524536%, 64.924622%, 17.419434%)" offset="0.308594"/><stop stop-opacity="1" stop-color="rgb(85.142517%, 65.542603%, 17.614746%)" offset="0.3125"/><stop stop-opacity="1" stop-color="rgb(85.566711%, 65.966797%, 17.767334%)" offset="0.316406"/><stop stop-opacity="1" stop-color="rgb(85.992432%, 66.392517%, 17.919922%)" offset="0.320312"/><stop stop-opacity="1" stop-color="rgb(86.416626%, 66.816711%, 18.070984%)" offset="0.324219"/><stop stop-opacity="1" stop-color="rgb(86.842346%, 67.242432%, 18.223572%)" offset="0.328125"/><stop stop-opacity="1" stop-color="rgb(87.266541%, 67.666626%, 18.37616%)" offset="0.332031"/><stop stop-opacity="1" stop-color="rgb(87.692261%, 68.092346%, 18.528748%)" offset="0.335937"/><stop stop-opacity="1" stop-color="rgb(88.116455%, 68.516541%, 18.67981%)" offset="0.339844"/><stop stop-opacity="1" stop-color="rgb(88.542175%, 68.942261%, 18.832397%)" offset="0.34375"/><stop stop-opacity="1" stop-color="rgb(88.96637%, 69.366455%, 18.984985%)" offset="0.347656"/><stop stop-opacity="1" stop-color="rgb(89.39209%, 69.792175%, 19.137573%)" offset="0.351562"/><stop stop-opacity="1" stop-color="rgb(89.816284%, 70.21637%, 19.288635%)" offset="0.355469"/><stop stop-opacity="1" stop-color="rgb(90.242004%, 70.64209%, 19.441223%)" offset="0.359375"/><stop stop-opacity="1" stop-color="rgb(90.666199%, 71.066284%, 19.593811%)" offset="0.363281"/><stop stop-opacity="1" stop-color="rgb(91.091919%, 71.492004%, 19.746399%)" offset="0.367187"/><stop stop-opacity="1" stop-color="rgb(91.482544%, 71.882629%, 19.88678%)" offset="0.371094"/><stop stop-opacity="1" stop-color="rgb(91.873169%, 72.273254%, 20.027161%)" offset="0.375"/><stop stop-opacity="1" stop-color="rgb(92.092896%, 72.492981%, 20.108032%)" offset="0.378906"/><stop stop-opacity="1" stop-color="rgb(92.312622%, 72.712708%, 20.19043%)" offset="0.382812"/><stop stop-opacity="1" stop-color="rgb(92.532349%, 72.932434%, 20.271301%)" offset="0.386719"/><stop stop-opacity="1" stop-color="rgb(92.752075%, 73.152161%, 20.353699%)" offset="0.390625"/><stop stop-opacity="1" stop-color="rgb(92.971802%, 73.371887%, 20.43457%)" offset="0.394531"/><stop stop-opacity="1" stop-color="rgb(93.191528%, 73.591614%, 20.516968%)" offset="0.398437"/><stop stop-opacity="1" stop-color="rgb(93.411255%, 73.81134%, 20.597839%)" offset="0.402344"/><stop stop-opacity="1" stop-color="rgb(93.630981%, 74.031067%, 20.680237%)" offset="0.40625"/><stop stop-opacity="1" stop-color="rgb(93.850708%, 74.250793%, 20.762634%)" offset="0.410156"/><stop stop-opacity="1" stop-color="rgb(94.070435%, 74.47052%, 20.845032%)" offset="0.414062"/><stop stop-opacity="1" stop-color="rgb(94.290161%, 74.690247%, 20.925903%)" offset="0.417969"/><stop stop-opacity="1" stop-color="rgb(94.509888%, 74.909973%, 21.008301%)" offset="0.421875"/><stop stop-opacity="1" stop-color="rgb(94.729614%, 75.1297%, 21.089172%)" offset="0.425781"/><stop stop-opacity="1" stop-color="rgb(94.949341%, 75.349426%, 21.17157%)" offset="0.429687"/><stop stop-opacity="1" stop-color="rgb(95.169067%, 75.569153%, 21.252441%)" offset="0.433594"/><stop stop-opacity="1" stop-color="rgb(95.388794%, 75.788879%, 21.334839%)" offset="0.4375"/><stop stop-opacity="1" stop-color="rgb(95.608521%, 76.008606%, 21.41571%)" offset="0.441406"/><stop stop-opacity="1" stop-color="rgb(95.828247%, 76.228333%, 21.498108%)" offset="0.445312"/><stop stop-opacity="1" stop-color="rgb(96.000671%, 76.400757%, 21.559143%)" offset="0.453125"/><stop stop-opacity="1" stop-color="rgb(96.272278%, 76.672363%, 21.650696%)" offset="0.460937"/><stop stop-opacity="1" stop-color="rgb(96.46759%, 76.867676%, 21.708679%)" offset="0.46875"/><stop stop-opacity="1" stop-color="rgb(96.664429%, 77.064514%, 21.766663%)" offset="0.476562"/><stop stop-opacity="1" stop-color="rgb(96.859741%, 77.259827%, 21.824646%)" offset="0.484375"/><stop stop-opacity="1" stop-color="rgb(97.05658%, 77.456665%, 21.882629%)" offset="0.492187"/><stop stop-opacity="1" stop-color="rgb(97.251892%, 77.651978%, 21.940613%)" offset="0.49352"/><stop stop-opacity="1" stop-color="rgb(97.351074%, 77.75116%, 21.969604%)" offset="0.5"/><stop stop-opacity="1" stop-color="rgb(97.44873%, 77.848816%, 21.998596%)" offset="0.50648"/><stop stop-opacity="1" stop-color="rgb(97.546387%, 77.946472%, 22.027588%)" offset="0.507812"/><stop stop-opacity="1" stop-color="rgb(97.644043%, 78.044128%, 22.05658%)" offset="0.515625"/><stop stop-opacity="1" stop-color="rgb(97.840881%, 78.240967%, 22.114563%)" offset="0.523437"/><stop stop-opacity="1" stop-color="rgb(98.036194%, 78.436279%, 22.172546%)" offset="0.53125"/><stop stop-opacity="1" stop-color="rgb(98.233032%, 78.631592%, 22.232056%)" offset="0.539062"/><stop stop-opacity="1" stop-color="rgb(98.428345%, 78.82843%, 22.290039%)" offset="0.546875"/><stop stop-opacity="1" stop-color="rgb(98.667908%, 79.067993%, 22.361755%)" offset="0.5625"/><stop stop-opacity="1" stop-color="rgb(98.895264%, 79.295349%, 22.434998%)" offset="0.625"/><stop stop-opacity="1" stop-color="rgb(99.145508%, 79.545593%, 22.529602%)" offset="0.75"/><stop stop-opacity="1" stop-color="rgb(99.455261%, 79.855347%, 22.645569%)" offset="1"/></linearGradient><clipPath id="99e327ad6d"><path d="M 59.625 94.953125 L 187.875 94.953125 L 187.875 244.953125 L 59.625 244.953125 Z M 59.625 94.953125 " clip-rule="nonzero"/></clipPath><clipPath id="8ac03cf190"><path d="M 98 94.953125 L 187.875 94.953125 L 187.875 244.953125 L 98 244.953125 Z M 98 94.953125 " clip-rule="nonzero"/></clipPath><clipPath id="b466b7b181"><path d="M 187.199219 144.898438 C 187.199219 117.015625 168.273438 94.996094 134.914062 94.996094 L 98.378906 94.996094 L 98.378906 128.710938 L 129.050781 128.710938 C 139.199219 128.710938 147.769531 134.554688 147.769531 144.675781 C 147.769531 155.242188 139.199219 160.863281 129.050781 160.863281 L 98.378906 160.863281 L 98.378906 194.578125 L 118.222656 194.578125 L 143.464844 244.910156 L 187.875 244.910156 L 157.222656 189.835938 C 171.203125 184.90625 187.199219 170.964844 187.199219 144.898438 Z M 187.199219 144.898438 " clip-rule="nonzero"/></clipPath><linearGradient x1="265.000003" gradientTransform="matrix(0.18794, 0, 0, 0.18739, 48.574153, 94.997618)" y1="400" x2="741.20002" gradientUnits="userSpaceOnUse" y2="400" id="36f81946e2"><stop stop-opacity="1" stop-color="rgb(33.299255%, 14.498901%, 0%)" offset="0"/><stop stop-opacity="1" stop-color="rgb(33.753967%, 14.953613%, 0.164795%)" offset="0.00390625"/><stop stop-opacity="1" stop-color="rgb(34.208679%, 15.408325%, 0.32959%)" offset="0.0078125"/><stop stop-opacity="1" stop-color="rgb(35.472107%, 16.671753%, 0.788879%)" offset="0.0117187"/><stop stop-opacity="1" stop-color="rgb(36.737061%, 17.936707%, 1.249695%)" offset="0.015625"/><stop stop-opacity="1" stop-color="rgb(37.966919%, 19.160461%, 1.690674%)" offset="0.0195312"/><stop stop-opacity="1" stop-color="rgb(39.196777%, 20.385742%, 2.131653%)" offset="0.0234375"/><stop stop-opacity="1" stop-color="rgb(40.275574%, 21.434021%, 2.49176%)" offset="0.0273438"/><stop stop-opacity="1" stop-color="rgb(41.355896%, 22.483826%, 2.851868%)" offset="0.03125"/><stop stop-opacity="1" stop-color="rgb(42.436218%, 23.532104%, 3.211975%)" offset="0.0351562"/><stop stop-opacity="1" stop-color="rgb(43.516541%, 24.581909%, 3.572083%)" offset="0.0390625"/><stop stop-opacity="1" stop-color="rgb(44.595337%, 25.630188%, 3.930664%)" offset="0.0429688"/><stop stop-opacity="1" stop-color="rgb(45.675659%, 26.679993%, 4.290771%)" offset="0.046875"/><stop stop-opacity="1" stop-color="rgb(46.754456%, 27.729797%, 4.650879%)" offset="0.0507812"/><stop stop-opacity="1" stop-color="rgb(47.834778%, 28.779602%, 5.010986%)" offset="0.0546875"/><stop stop-opacity="1" stop-color="rgb(48.9151%, 29.827881%, 5.371094%)" offset="0.0585938"/><stop stop-opacity="1" stop-color="rgb(49.995422%, 30.877686%, 5.731201%)" offset="0.0625"/><stop stop-opacity="1" stop-color="rgb(51.074219%, 31.925964%, 6.091309%)" offset="0.0664062"/><stop stop-opacity="1" stop-color="rgb(52.154541%, 32.975769%, 6.451416%)" offset="0.0703125"/><stop stop-opacity="1" stop-color="rgb(53.082275%, 33.892822%, 6.764221%)" offset="0.0742188"/><stop stop-opacity="1" stop-color="rgb(54.011536%, 34.811401%, 7.078552%)" offset="0.078125"/><stop stop-opacity="1" stop-color="rgb(54.859924%, 35.65979%, 7.368469%)" offset="0.0820313"/><stop stop-opacity="1" stop-color="rgb(55.708313%, 36.508179%, 7.658386%)" offset="0.0859375"/><stop stop-opacity="1" stop-color="rgb(56.556702%, 37.356567%, 7.946777%)" offset="0.0898438"/><stop stop-opacity="1" stop-color="rgb(57.40509%, 38.206482%, 8.236694%)" offset="0.09375"/><stop stop-opacity="1" stop-color="rgb(58.253479%, 39.054871%, 8.526611%)" offset="0.0976562"/><stop stop-opacity="1" stop-color="rgb(59.103394%, 39.903259%, 8.816528%)" offset="0.101562"/><stop stop-opacity="1" stop-color="rgb(59.951782%, 40.751648%, 9.104919%)" offset="0.105469"/><stop stop-opacity="1" stop-color="rgb(60.800171%, 41.600037%, 9.394836%)" offset="0.109375"/><stop stop-opacity="1" stop-color="rgb(61.64856%, 42.448425%, 9.684753%)" offset="0.113281"/><stop stop-opacity="1" stop-color="rgb(62.496948%, 43.296814%, 9.97467%)" offset="0.117188"/><stop stop-opacity="1" stop-color="rgb(63.345337%, 44.145203%, 10.264587%)" offset="0.121094"/><stop stop-opacity="1" stop-color="rgb(64.193726%, 44.993591%, 10.554504%)" offset="0.125"/><stop stop-opacity="1" stop-color="rgb(65.003967%, 45.797729%, 10.832214%)" offset="0.128906"/><stop stop-opacity="1" stop-color="rgb(65.814209%, 46.603394%, 11.11145%)" offset="0.132812"/><stop stop-opacity="1" stop-color="rgb(66.496277%, 47.259521%, 11.352539%)" offset="0.136719"/><stop stop-opacity="1" stop-color="rgb(67.178345%, 47.917175%, 11.595154%)" offset="0.140625"/><stop stop-opacity="1" stop-color="rgb(67.860413%, 48.573303%, 11.836243%)" offset="0.144531"/><stop stop-opacity="1" stop-color="rgb(68.54248%, 49.230957%, 12.078857%)" offset="0.148438"/><stop stop-opacity="1" stop-color="rgb(69.224548%, 49.888611%, 12.319946%)" offset="0.152344"/><stop stop-opacity="1" stop-color="rgb(69.906616%, 50.546265%, 12.561035%)" offset="0.15625"/><stop stop-opacity="1" stop-color="rgb(70.588684%, 51.202393%, 12.802124%)" offset="0.160156"/><stop stop-opacity="1" stop-color="rgb(71.270752%, 51.860046%, 13.044739%)" offset="0.164062"/><stop stop-opacity="1" stop-color="rgb(71.95282%, 52.5177%, 13.285828%)" offset="0.167969"/><stop stop-opacity="1" stop-color="rgb(72.634888%, 53.175354%, 13.528442%)" offset="0.171875"/><stop stop-opacity="1" stop-color="rgb(73.316956%, 53.831482%, 13.769531%)" offset="0.175781"/><stop stop-opacity="1" stop-color="rgb(73.999023%, 54.489136%, 14.012146%)" offset="0.179688"/><stop stop-opacity="1" stop-color="rgb(74.679565%, 55.145264%, 14.253235%)" offset="0.183594"/><stop stop-opacity="1" stop-color="rgb(75.361633%, 55.802917%, 14.49585%)" offset="0.1875"/><stop stop-opacity="1" stop-color="rgb(76.00708%, 56.428528%, 14.72168%)" offset="0.191406"/><stop stop-opacity="1" stop-color="rgb(76.654053%, 57.054138%, 14.94751%)" offset="0.195312"/><stop stop-opacity="1" stop-color="rgb(77.120972%, 57.521057%, 15.093994%)" offset="0.199219"/><stop stop-opacity="1" stop-color="rgb(77.587891%, 57.987976%, 15.240479%)" offset="0.203125"/><stop stop-opacity="1" stop-color="rgb(78.053284%, 58.453369%, 15.386963%)" offset="0.207031"/><stop stop-opacity="1" stop-color="rgb(78.520203%, 58.920288%, 15.533447%)" offset="0.210937"/><stop stop-opacity="1" stop-color="rgb(78.987122%, 59.387207%, 15.679932%)" offset="0.214844"/><stop stop-opacity="1" stop-color="rgb(79.454041%, 59.854126%, 15.826416%)" offset="0.21875"/><stop stop-opacity="1" stop-color="rgb(79.919434%, 60.319519%, 15.9729%)" offset="0.222656"/><stop stop-opacity="1" stop-color="rgb(80.386353%, 60.786438%, 16.119385%)" offset="0.226562"/><stop stop-opacity="1" stop-color="rgb(80.853271%, 61.253357%, 16.265869%)" offset="0.230469"/><stop stop-opacity="1" stop-color="rgb(81.32019%, 61.720276%, 16.412354%)" offset="0.234375"/><stop stop-opacity="1" stop-color="rgb(81.785583%, 62.185669%, 16.558838%)" offset="0.238281"/><stop stop-opacity="1" stop-color="rgb(82.252502%, 62.652588%, 16.705322%)" offset="0.242187"/><stop stop-opacity="1" stop-color="rgb(82.719421%, 63.119507%, 16.851807%)" offset="0.246094"/><stop stop-opacity="1" stop-color="rgb(83.18634%, 63.586426%, 16.998291%)" offset="0.25"/><stop stop-opacity="1" stop-color="rgb(83.651733%, 64.051819%, 17.144775%)" offset="0.253906"/><stop stop-opacity="1" stop-color="rgb(84.118652%, 64.518738%, 17.29126%)" offset="0.257812"/><stop stop-opacity="1" stop-color="rgb(84.585571%, 64.985657%, 17.437744%)" offset="0.261719"/><stop stop-opacity="1" stop-color="rgb(85.05249%, 65.452576%, 17.584229%)" offset="0.265625"/><stop stop-opacity="1" stop-color="rgb(85.374451%, 65.774536%, 17.698669%)" offset="0.269531"/><stop stop-opacity="1" stop-color="rgb(85.697937%, 66.098022%, 17.81311%)" offset="0.273438"/><stop stop-opacity="1" stop-color="rgb(86.012268%, 66.412354%, 17.926025%)" offset="0.277344"/><stop stop-opacity="1" stop-color="rgb(86.328125%, 66.72821%, 18.040466%)" offset="0.28125"/><stop stop-opacity="1" stop-color="rgb(86.643982%, 67.044067%, 18.153381%)" offset="0.285156"/><stop stop-opacity="1" stop-color="rgb(86.959839%, 67.359924%, 18.266296%)" offset="0.289062"/><stop stop-opacity="1" stop-color="rgb(87.27417%, 67.674255%, 18.379211%)" offset="0.292969"/><stop stop-opacity="1" stop-color="rgb(87.590027%, 67.990112%, 18.492126%)" offset="0.296875"/><stop stop-opacity="1" stop-color="rgb(87.904358%, 68.304443%, 18.605042%)" offset="0.300781"/><stop stop-opacity="1" stop-color="rgb(88.220215%, 68.6203%, 18.717957%)" offset="0.304687"/><stop stop-opacity="1" stop-color="rgb(88.536072%, 68.936157%, 18.830872%)" offset="0.308594"/><stop stop-opacity="1" stop-color="rgb(88.851929%, 69.252014%, 18.943787%)" offset="0.3125"/><stop stop-opacity="1" stop-color="rgb(89.16626%, 69.566345%, 19.056702%)" offset="0.316406"/><stop stop-opacity="1" stop-color="rgb(89.482117%, 69.882202%, 19.169617%)" offset="0.320312"/><stop stop-opacity="1" stop-color="rgb(89.796448%, 70.196533%, 19.282532%)" offset="0.324219"/><stop stop-opacity="1" stop-color="rgb(90.112305%, 70.51239%, 19.395447%)" offset="0.328125"/><stop stop-opacity="1" stop-color="rgb(90.426636%, 70.826721%, 19.508362%)" offset="0.332031"/><stop stop-opacity="1" stop-color="rgb(90.742493%, 71.142578%, 19.621277%)" offset="0.335938"/><stop stop-opacity="1" stop-color="rgb(91.05835%, 71.458435%, 19.734192%)" offset="0.339844"/><stop stop-opacity="1" stop-color="rgb(91.374207%, 71.774292%, 19.847107%)" offset="0.34375"/><stop stop-opacity="1" stop-color="rgb(91.639709%, 72.039795%, 19.943237%)" offset="0.347656"/><stop stop-opacity="1" stop-color="rgb(91.905212%, 72.305298%, 20.039368%)" offset="0.351562"/><stop stop-opacity="1" stop-color="rgb(92.068481%, 72.468567%, 20.098877%)" offset="0.359375"/><stop stop-opacity="1" stop-color="rgb(92.39502%, 72.793579%, 20.220947%)" offset="0.367188"/><stop stop-opacity="1" stop-color="rgb(92.720032%, 73.120117%, 20.341492%)" offset="0.375"/><stop stop-opacity="1" stop-color="rgb(93.04657%, 73.446655%, 20.463562%)" offset="0.382812"/><stop stop-opacity="1" stop-color="rgb(93.373108%, 73.773193%, 20.584106%)" offset="0.390625"/><stop stop-opacity="1" stop-color="rgb(93.69812%, 74.098206%, 20.706177%)" offset="0.398438"/><stop stop-opacity="1" stop-color="rgb(94.024658%, 74.424744%, 20.826721%)" offset="0.40625"/><stop stop-opacity="1" stop-color="rgb(94.351196%, 74.751282%, 20.948792%)" offset="0.414062"/><stop stop-opacity="1" stop-color="rgb(94.677734%, 75.07782%, 21.069336%)" offset="0.421875"/><stop stop-opacity="1" stop-color="rgb(95.002747%, 75.402832%, 21.191406%)" offset="0.429688"/><stop stop-opacity="1" stop-color="rgb(95.329285%, 75.72937%, 21.311951%)" offset="0.4375"/><stop stop-opacity="1" stop-color="rgb(95.655823%, 76.055908%, 21.434021%)" offset="0.445313"/><stop stop-opacity="1" stop-color="rgb(95.968628%, 76.368713%, 21.549988%)" offset="0.453125"/><stop stop-opacity="1" stop-color="rgb(96.264648%, 76.664734%, 21.647644%)" offset="0.46875"/><stop stop-opacity="1" stop-color="rgb(96.556091%, 76.956177%, 21.734619%)" offset="0.484375"/><stop stop-opacity="1" stop-color="rgb(96.846008%, 77.246094%, 21.820068%)" offset="0.5"/><stop stop-opacity="1" stop-color="rgb(97.137451%, 77.537537%, 21.907043%)" offset="0.515625"/><stop stop-opacity="1" stop-color="rgb(97.428894%, 77.828979%, 21.992493%)" offset="0.53125"/><stop stop-opacity="1" stop-color="rgb(97.718811%, 78.118896%, 22.079468%)" offset="0.546875"/><stop stop-opacity="1" stop-color="rgb(98.010254%, 78.410339%, 22.164917%)" offset="0.5625"/><stop stop-opacity="1" stop-color="rgb(98.301697%, 78.701782%, 22.251892%)" offset="0.578125"/><stop stop-opacity="1" stop-color="rgb(98.591614%, 78.991699%, 22.337341%)" offset="0.59375"/><stop stop-opacity="1" stop-color="rgb(98.796082%, 79.196167%, 22.399902%)" offset="0.625"/><stop stop-opacity="1" stop-color="rgb(98.977661%, 79.377747%, 22.465515%)" offset="0.75"/><stop stop-opacity="1" stop-color="rgb(99.226379%, 79.626465%, 22.558594%)" offset="0.875"/><stop stop-opacity="1" stop-color="rgb(99.475098%, 79.875183%, 22.651672%)" offset="1"/></linearGradient></defs><g clip-path="url(#ecba0113f1)"><path fill="#feea3a" d="M 189.078125 221.839844 L 208.945312 193.769531 C 219.414062 204.207031 235.578125 212.921875 255.425781 212.921875 C 268.300781 212.921875 276.15625 207.917969 276.15625 200.949219 C 276.15625 181.140625 193.664062 197.03125 193.664062 141.113281 C 193.644531 116.753906 214.394531 95 251.703125 95 C 275.046875 95 295.347656 101.96875 310.851562 115.238281 L 290.328125 141.996094 C 278.109375 131.988281 262.171875 126.984375 247.777344 126.984375 C 236.855469 126.984375 232.0625 131.332031 232.0625 137.421875 C 232.0625 155.917969 314.328125 142.425781 314.328125 196.394531 C 314.328125 225.550781 292.734375 244.910156 253.660156 244.910156 C 224.207031 244.910156 203.703125 235.765625 189.078125 221.839844 Z M 189.078125 221.839844 " fill-opacity="1" fill-rule="nonzero"/></g><g clip-path="url(#060a0d739d)"><g clip-path="url(#8f3304cc6a)"><path fill="url(#6732999452)" d="M 189.078125 116.753906 L 189.078125 244.910156 L 314.328125 244.910156 L 314.328125 116.753906 Z M 189.078125 116.753906 " fill-rule="nonzero"/></g></g><g clip-path="url(#99e327ad6d)"><path fill="#feea3a" d="M 143.464844 244.910156 L 118.222656 194.558594 L 98.398438 194.558594 L 98.398438 244.910156 L 59.625 244.910156 L 59.625 94.996094 L 134.914062 94.996094 C 168.273438 94.996094 187.21875 117.015625 187.21875 144.898438 C 187.21875 170.964844 171.203125 184.90625 157.242188 189.855469 L 187.875 244.910156 Z M 147.75 144.675781 C 147.75 134.554688 139.179688 128.710938 129.03125 128.710938 L 98.398438 128.710938 L 98.398438 160.847656 L 129.050781 160.847656 C 139.199219 160.847656 147.75 155.226562 147.75 144.675781 Z M 147.75 144.675781 " fill-opacity="1" fill-rule="nonzero"/></g><g clip-path="url(#8ac03cf190)"><g clip-path="url(#b466b7b181)"><path fill="url(#36f81946e2)" d="M 98.378906 94.996094 L 98.378906 244.910156 L 187.875 244.910156 L 187.875 94.996094 Z M 98.378906 94.996094 " fill-rule="nonzero"/></g></g><g fill="#feea3a" fill-opacity="1"><g transform="translate(109.570932, 282.907949)"><g><path d="M 10.03125 -12.84375 L 10.03125 -11.5625 L 6 -11.5625 L 6 0 L 4.5 0 L 4.5 -11.5625 L 0.46875 -11.5625 L 0.46875 -12.84375 Z M 10.03125 -12.84375 "/></g></g></g><g fill="#feea3a" fill-opacity="1"><g transform="translate(121.858232, 282.907949)"><g><path d="M 3.453125 -6.0625 L 3.453125 -1.25 L 10 -1.25 L 10 0 L 1.9375 0 L 1.9375 -12.84375 L 9.859375 -12.84375 L 9.859375 -11.609375 L 3.453125 -11.609375 L 3.453125 -7.296875 L 9.109375 -7.296875 L 9.109375 -6.0625 Z M 3.453125 -6.0625 "/></g></g></g><g fill="#feea3a" fill-opacity="1"><g transform="translate(134.505655, 282.907949)"><g><path d="M 7.109375 0.1875 C 5.984375 0.1875 4.976562 -0.0664062 4.09375 -0.578125 C 3.21875 -1.097656 2.53125 -1.851562 2.03125 -2.84375 C 1.53125 -3.84375 1.28125 -5.035156 1.28125 -6.421875 C 1.28125 -7.816406 1.53125 -9.007812 2.03125 -10 C 2.53125 -10.988281 3.21875 -11.738281 4.09375 -12.25 C 4.976562 -12.769531 5.984375 -13.03125 7.109375 -13.03125 C 8.304688 -13.03125 9.300781 -12.800781 10.09375 -12.34375 C 10.894531 -11.894531 11.472656 -11.210938 11.828125 -10.296875 L 10.859375 -9.65625 L 10.640625 -9.65625 C 10.285156 -10.394531 9.828125 -10.914062 9.265625 -11.21875 C 8.703125 -11.53125 7.984375 -11.6875 7.109375 -11.6875 C 6.296875 -11.6875 5.578125 -11.503906 4.953125 -11.140625 C 4.328125 -10.773438 3.828125 -10.203125 3.453125 -9.421875 C 3.085938 -8.640625 2.90625 -7.640625 2.90625 -6.421875 C 2.90625 -5.203125 3.085938 -4.203125 3.453125 -3.421875 C 3.828125 -2.648438 4.328125 -2.082031 4.953125 -1.71875 C 5.578125 -1.351562 6.296875 -1.171875 7.109375 -1.171875 C 8.035156 -1.171875 8.796875 -1.378906 9.390625 -1.796875 C 9.984375 -2.222656 10.421875 -2.90625 10.703125 -3.84375 L 10.921875 -3.84375 L 11.9375 -3.34375 C 11.632812 -2.207031 11.070312 -1.332031 10.25 -0.71875 C 9.425781 -0.113281 8.378906 0.1875 7.109375 0.1875 Z M 7.109375 0.1875 "/></g></g></g><g fill="#feea3a" fill-opacity="1"><g transform="translate(148.900957, 282.907949)"><g><path d="M 10.140625 -7.640625 L 10.140625 -12.84375 L 11.640625 -12.84375 L 11.640625 0 L 10.140625 0 L 10.140625 -6.359375 L 3.453125 -6.359375 L 3.453125 0 L 1.9375 0 L 1.9375 -12.84375 L 3.453125 -12.84375 L 3.453125 -7.640625 Z M 10.140625 -7.640625 "/></g></g></g><g fill="#feea3a" fill-opacity="1"><g transform="translate(164.279993, 282.907949)"><g/></g></g><g fill="#feea3a" fill-opacity="1"><g transform="translate(170.489225, 282.907949)"><g><path d="M 5.609375 0.1875 C 4.804688 0.1875 4.082031 0.078125 3.4375 -0.140625 C 2.800781 -0.359375 2.269531 -0.644531 1.84375 -1 C 1.414062 -1.363281 1.09375 -1.757812 0.875 -2.1875 L 1.703125 -3.1875 L 1.921875 -3.1875 C 2.722656 -1.84375 3.953125 -1.171875 5.609375 -1.171875 C 6.578125 -1.171875 7.296875 -1.375 7.765625 -1.78125 C 8.242188 -2.1875 8.484375 -2.75 8.484375 -3.46875 C 8.484375 -3.894531 8.40625 -4.253906 8.25 -4.546875 C 8.09375 -4.835938 7.832031 -5.085938 7.46875 -5.296875 C 7.113281 -5.503906 6.628906 -5.6875 6.015625 -5.84375 L 4.515625 -6.203125 C 3.398438 -6.472656 2.578125 -6.898438 2.046875 -7.484375 C 1.515625 -8.078125 1.25 -8.828125 1.25 -9.734375 C 1.25 -10.367188 1.410156 -10.9375 1.734375 -11.4375 C 2.066406 -11.9375 2.546875 -12.328125 3.171875 -12.609375 C 3.804688 -12.890625 4.566406 -13.03125 5.453125 -13.03125 C 6.421875 -13.03125 7.234375 -12.894531 7.890625 -12.625 C 8.554688 -12.351562 9.09375 -11.945312 9.5 -11.40625 L 8.75 -10.40625 L 8.53125 -10.40625 C 8.164062 -10.851562 7.726562 -11.179688 7.21875 -11.390625 C 6.71875 -11.609375 6.128906 -11.71875 5.453125 -11.71875 C 4.554688 -11.71875 3.878906 -11.539062 3.421875 -11.1875 C 2.972656 -10.84375 2.75 -10.367188 2.75 -9.765625 C 2.75 -9.179688 2.914062 -8.71875 3.25 -8.375 C 3.582031 -8.03125 4.144531 -7.765625 4.9375 -7.578125 L 6.484375 -7.21875 C 7.722656 -6.925781 8.625 -6.472656 9.1875 -5.859375 C 9.75 -5.253906 10.03125 -4.484375 10.03125 -3.546875 C 10.03125 -2.816406 9.863281 -2.171875 9.53125 -1.609375 C 9.207031 -1.054688 8.710938 -0.617188 8.046875 -0.296875 C 7.390625 0.0234375 6.578125 0.1875 5.609375 0.1875 Z M 5.609375 0.1875 "/></g></g></g><g fill="#feea3a" fill-opacity="1"><g transform="translate(183.294751, 282.907949)"><g><path d="M 6.625 0.1875 C 5.050781 0.1875 3.859375 -0.210938 3.046875 -1.015625 C 2.242188 -1.816406 1.84375 -3.003906 1.84375 -4.578125 L 1.84375 -12.84375 L 3.34375 -12.84375 L 3.34375 -4.59375 C 3.34375 -3.46875 3.613281 -2.625 4.15625 -2.0625 C 4.695312 -1.5 5.519531 -1.21875 6.625 -1.21875 C 8.820312 -1.21875 9.921875 -2.34375 9.921875 -4.59375 L 9.921875 -12.84375 L 11.421875 -12.84375 L 11.421875 -4.578125 C 11.421875 -3.003906 11.015625 -1.816406 10.203125 -1.015625 C 9.390625 -0.210938 8.195312 0.1875 6.625 0.1875 Z M 6.625 0.1875 "/></g></g></g><g fill="#feea3a" fill-opacity="1"><g transform="translate(198.331245, 282.907949)"><g><path d="M 6.546875 -12.84375 C 7.421875 -12.84375 8.175781 -12.6875 8.8125 -12.375 C 9.445312 -12.0625 9.929688 -11.609375 10.265625 -11.015625 C 10.597656 -10.429688 10.765625 -9.738281 10.765625 -8.9375 C 10.765625 -8.144531 10.597656 -7.453125 10.265625 -6.859375 C 9.929688 -6.273438 9.445312 -5.820312 8.8125 -5.5 C 8.175781 -5.1875 7.421875 -5.03125 6.546875 -5.03125 L 3.453125 -5.03125 L 3.453125 0 L 1.9375 0 L 1.9375 -12.84375 Z M 6.5 -6.3125 C 8.28125 -6.3125 9.171875 -7.1875 9.171875 -8.9375 C 9.171875 -10.6875 8.28125 -11.5625 6.5 -11.5625 L 3.453125 -11.5625 L 3.453125 -6.3125 Z M 6.5 -6.3125 "/></g></g></g><g fill="#feea3a" fill-opacity="1"><g transform="translate(211.839438, 282.907949)"><g><path d="M 6.546875 -12.84375 C 7.421875 -12.84375 8.175781 -12.6875 8.8125 -12.375 C 9.445312 -12.0625 9.929688 -11.609375 10.265625 -11.015625 C 10.597656 -10.429688 10.765625 -9.738281 10.765625 -8.9375 C 10.765625 -8.144531 10.597656 -7.453125 10.265625 -6.859375 C 9.929688 -6.273438 9.445312 -5.820312 8.8125 -5.5 C 8.175781 -5.1875 7.421875 -5.03125 6.546875 -5.03125 L 3.453125 -5.03125 L 3.453125 0 L 1.9375 0 L 1.9375 -12.84375 Z M 6.5 -6.3125 C 8.28125 -6.3125 9.171875 -7.1875 9.171875 -8.9375 C 9.171875 -10.6875 8.28125 -11.5625 6.5 -11.5625 L 3.453125 -11.5625 L 3.453125 -6.3125 Z M 6.5 -6.3125 "/></g></g></g><g fill="#feea3a" fill-opacity="1"><g transform="translate(225.347631, 282.907949)"><g><path d="M 7.046875 0.1875 C 5.929688 0.1875 4.941406 -0.0507812 4.078125 -0.53125 C 3.210938 -1.007812 2.53125 -1.742188 2.03125 -2.734375 C 1.53125 -3.722656 1.28125 -4.953125 1.28125 -6.421875 C 1.28125 -7.890625 1.53125 -9.117188 2.03125 -10.109375 C 2.53125 -11.097656 3.210938 -11.832031 4.078125 -12.3125 C 4.941406 -12.789062 5.929688 -13.03125 7.046875 -13.03125 C 8.160156 -13.03125 9.148438 -12.789062 10.015625 -12.3125 C 10.890625 -11.832031 11.570312 -11.097656 12.0625 -10.109375 C 12.5625 -9.117188 12.8125 -7.890625 12.8125 -6.421875 C 12.8125 -4.953125 12.5625 -3.722656 12.0625 -2.734375 C 11.570312 -1.742188 10.890625 -1.007812 10.015625 -0.53125 C 9.148438 -0.0507812 8.160156 0.1875 7.046875 0.1875 Z M 7.046875 -1.21875 C 8.378906 -1.21875 9.40625 -1.632812 10.125 -2.46875 C 10.84375 -3.300781 11.203125 -4.617188 11.203125 -6.421875 C 11.203125 -8.222656 10.84375 -9.539062 10.125 -10.375 C 9.40625 -11.21875 8.378906 -11.640625 7.046875 -11.640625 C 4.285156 -11.640625 2.90625 -9.898438 2.90625 -6.421875 C 2.90625 -2.953125 4.285156 -1.21875 7.046875 -1.21875 Z M 7.046875 -1.21875 "/></g></g></g><g fill="#feea3a" fill-opacity="1"><g transform="translate(241.236103, 282.907949)"><g><path d="M 1.9375 0 L 1.9375 -12.84375 L 6.609375 -12.84375 C 7.472656 -12.84375 8.195312 -12.703125 8.78125 -12.421875 C 9.363281 -12.140625 9.800781 -11.738281 10.09375 -11.21875 C 10.382812 -10.695312 10.53125 -10.082031 10.53125 -9.375 C 10.53125 -8.582031 10.332031 -7.925781 9.9375 -7.40625 C 9.539062 -6.882812 8.921875 -6.492188 8.078125 -6.234375 L 8.078125 -6.0625 C 8.492188 -5.894531 8.832031 -5.632812 9.09375 -5.28125 C 9.363281 -4.925781 9.609375 -4.398438 9.828125 -3.703125 L 11.015625 0 L 9.453125 0 L 8.171875 -3.921875 C 8.023438 -4.390625 7.847656 -4.753906 7.640625 -5.015625 C 7.441406 -5.285156 7.191406 -5.476562 6.890625 -5.59375 C 6.585938 -5.707031 6.203125 -5.765625 5.734375 -5.765625 L 3.453125 -5.765625 L 3.453125 0 Z M 6.578125 -7.046875 C 7.378906 -7.046875 7.972656 -7.234375 8.359375 -7.609375 C 8.753906 -7.984375 8.953125 -8.550781 8.953125 -9.3125 C 8.953125 -10.070312 8.753906 -10.632812 8.359375 -11 C 7.972656 -11.375 7.378906 -11.5625 6.578125 -11.5625 L 3.453125 -11.5625 L 3.453125 -7.046875 Z M 6.578125 -7.046875 "/></g></g></g><g fill="#feea3a" fill-opacity="1"><g transform="translate(254.928741, 282.907949)"><g><path d="M 10.03125 -12.84375 L 10.03125 -11.5625 L 6 -11.5625 L 6 0 L 4.5 0 L 4.5 -11.5625 L 0.46875 -11.5625 L 0.46875 -12.84375 Z M 10.03125 -12.84375 "/></g></g></g></svg>